# File created by Blade
# Date/Time:  Mon Sep 22 15:39:46 2014
# Frame Rate: 120.000 fps
#------------------------------------------------------
:FULLY-SPECIFIED
:DEGREES
3065
root 0.989569 36.989035 3.391788 2.833537 -13.372478 0.248923
RightUpLeg 5.920309 1.642082 -0.854232
RightLeg -5.582465 -0.000000 0.000000
RightFoot -12.013935 -11.729323 15.409627
RightToeBase 14.804482 -0.000000 -0.000000
LeftUpLeg 7.964870 10.163972 4.298949
LeftLeg -3.921892 -0.000000 0.000000
LeftFoot -11.288311 15.355500 -20.289948
LeftToeBase 7.497720 -0.000000 -0.000000
Spine 1.798449 -25.242023 -6.441277
RightShoulder -10.390715 -9.743236 -24.100426
RightArm -210.827562 107.091663 -170.046856
RightForeArm 78.038740 0.000000 114.457980
RightHand 21.277534 -0.000000 -13.752892
RightHandThumb1 -24.326973 -0.000000 -32.862282
LeftShoulder -21.760655 40.785982 -8.504120
LeftArm 31.043527 4.856099 -69.444046
LeftForeArm 21.009919 -0.000000 29.817523
LeftHand -15.390628 -0.000000 -8.971959
LeftHandThumb1 -26.253704 0.000000 33.147579
Head 3.729168 -41.904078 7.439503
3066
root 0.984908 36.988862 3.386647 2.842252 -13.500786 0.241792
RightUpLeg 5.862584 1.664457 -0.846232
RightLeg -5.529124 -0.000000 0.000000
RightFoot -12.022590 -11.677631 15.373851
RightToeBase 14.845489 -0.000000 -0.000000
LeftUpLeg 7.956766 10.412289 4.318910
LeftLeg -3.886156 -0.000000 0.000000
LeftFoot -11.254447 15.264824 -20.206934
LeftToeBase 7.471244 -0.000000 -0.000000
Spine 1.907255 -25.525176 -6.523587
RightShoulder -10.521934 -9.636697 -24.025064
RightArm -212.079754 106.646300 -170.931601
RightForeArm 78.096361 0.000000 114.367507
RightHand 21.526992 -0.000000 -13.696964
RightHandThumb1 -24.326973 -0.000000 -32.862282
LeftShoulder -21.806470 40.808753 -8.494663
LeftArm 31.065940 5.104688 -69.475862
LeftForeArm 20.983198 -0.000000 29.579631
LeftHand -15.453062 0.000000 -8.893507
LeftHandThumb1 -26.253704 0.000000 33.147579
Head 3.676477 -41.824887 7.529089
3067
root 0.978087 36.989077 3.380749 2.849857 -13.628750 0.203358
RightUpLeg 5.865928 1.833583 -0.805067
RightLeg -5.577715 -0.000000 0.000000
RightFoot -11.977320 -11.702292 15.404749
RightToeBase 14.824954 -0.000000 -0.000000
LeftUpLeg 7.993270 10.493621 4.365785
LeftLeg -3.919769 -0.000000 0.000000
LeftFoot -11.249612 15.279154 -20.224451
LeftToeBase 7.435267 -0.000000 -0.000000
Spine 2.011022 -25.791695 -6.577785
RightShoulder -10.658709 -9.612558 -23.960272
RightArm -213.341537 106.195263 -171.805612
RightForeArm 78.072859 0.000000 114.312917
RightHand 21.417571 -0.000000 -13.839805
RightHandThumb1 -24.326973 -0.000000 -32.862282
LeftShoulder -21.770103 40.840663 -8.428056
LeftArm 31.066958 5.319690 -69.549620
LeftForeArm 21.100742 -0.000000 29.316240
LeftHand -15.550821 -0.000000 -8.909045
LeftHandThumb1 -26.253704 0.000000 33.147579
Head 3.598019 -41.710797 7.657578
3068
root 0.973619 36.988881 3.378213 2.822277 -13.753171 0.186610
RightUpLeg 5.897527 1.960954 -0.786731
RightLeg -5.616773 -0.000000 0.000000
RightFoot -11.942571 -11.736674 15.398885
RightToeBase 14.850151 -0.000000 -0.000000
LeftUpLeg 8.068706 10.565521 4.393416
LeftLeg -3.962894 -0.000000 0.000000
LeftFoot -11.257765 15.293693 -20.285651
LeftToeBase 7.470103 -0.000000 -0.000000
Spine 2.144474 -26.044317 -6.659442
RightShoulder -10.795822 -9.639654 -23.891678
RightArm -214.546060 105.606352 -172.618064
RightForeArm 77.998536 0.000000 114.279497
RightHand 21.399099 -0.000000 -13.883314
RightHandThumb1 -24.326973 -0.000000 -32.862282
LeftShoulder -21.638343 40.863716 -8.317082
LeftArm 31.019641 5.498871 -69.631469
LeftForeArm 21.103757 -0.000000 29.088672
LeftHand -15.555693 -0.000000 -9.040088
LeftHandThumb1 -26.253704 0.000000 33.147579
Head 3.560303 -41.637207 7.745117
3069
root 0.969091 36.989269 3.372320 2.807491 -13.868473 0.167490
RightUpLeg 5.900078 2.052335 -0.763450
RightLeg -5.628765 -0.000000 0.000000
RightFoot -11.918399 -11.724482 15.413326
RightToeBase 14.841357 -0.000000 -0.000000
LeftUpLeg 8.111306 10.621713 4.418159
LeftLeg -3.982717 -0.000000 0.000000
LeftFoot -11.249936 15.326392 -20.295920
LeftToeBase 7.411925 -0.000000 -0.000000
Spine 2.280712 -26.344264 -6.746256
RightShoulder -10.881056 -9.641952 -23.824888
RightArm -215.657180 105.018961 -173.347853
RightForeArm 78.133082 -0.000000 114.232814
RightHand 21.640140 -0.000000 -14.012819
RightHandThumb1 -24.326973 -0.000000 -32.862282
LeftShoulder -21.603375 40.869647 -8.249919
LeftArm 31.015360 5.702561 -69.706005
LeftForeArm 21.153942 -0.000000 28.862699
LeftHand -15.502852 -0.000000 -9.170901
LeftHandThumb1 -26.253704 0.000000 33.147579
Head 3.506627 -41.545050 7.873145
